<?xml version="1.0" encoding="utf-8"?>
<!-- Generator: Adobe Illustrator 19.0.0, SVG Export Plug-In . SVG Version: 6.00 Build 0)  -->
<svg version="1.1" id="Layer_1" xmlns="http://www.w3.org/2000/svg" xmlns:xlink="http://www.w3.org/1999/xlink" x="0px" y="0px"
	 viewBox="-415 217 128 128" style="enable-background:new -415 217 128 128;" xml:space="preserve">
<style type="text/css">
	.st0{fill:url(#SVGID_1_);}
	.st1{fill:url(#SVGID_2_);}
</style>
<linearGradient id="SVGID_1_" gradientUnits="userSpaceOnUse" x1="-22.6831" y1="-278.828" x2="77.7239" y2="-192.4411" gradientTransform="matrix(0.563 0 0 0.568 -391.925 390.601)">
	<stop  offset="0" style="stop-color:#5A9FD4"/>
	<stop  offset="1" style="stop-color:#306998"/>
</linearGradient>
<path class="st0" d="M-351.6,229.2c-4.2,0-8.3,0.4-11.8,1c-10.5,1.8-12.3,5.7-12.3,12.8v9.4h24.7v3.1h-34c-7.2,0-13.5,4.3-15.4,12.5
	c-2.3,9.4-2.4,15.3,0,25.1c1.8,7.3,5.9,12.5,13.1,12.5h8.5v-11.3c0-8.2,7.1-15.3,15.4-15.3h24.7c6.9,0,12.3-5.7,12.3-12.5v-23.5
	c0-6.7-5.6-11.7-12.3-12.8C-343,229.5-347.4,229.2-351.6,229.2z M-365,236.8c2.5,0,4.6,2.1,4.6,4.7c0,2.6-2.1,4.7-4.6,4.7
	c-2.6,0-4.6-2.1-4.6-4.7C-369.6,238.9-367.5,236.8-365,236.8z"/>
<linearGradient id="SVGID_2_" gradientUnits="userSpaceOnUse" x1="116.4861" y1="-140.151" x2="80.6321" y2="-190.877" gradientTransform="matrix(0.563 0 0 0.568 -391.925 390.601)">
	<stop  offset="0" style="stop-color:#FFD43B"/>
	<stop  offset="1" style="stop-color:#FFE873"/>
</linearGradient>
<path class="st1" d="M-323.3,255.6v11c0,8.5-7.2,15.7-15.4,15.7h-24.7c-6.8,0-12.3,5.8-12.3,12.5v23.5c0,6.7,5.8,10.6,12.3,12.5
	c7.8,2.3,15.3,2.7,24.7,0c6.2-1.8,12.3-5.4,12.3-12.5v-9.4h-24.7v-3.1h37c7.2,0,9.9-5,12.3-12.5c2.6-7.7,2.5-15.2,0-25.1
	c-1.8-7.1-5.2-12.5-12.3-12.5L-323.3,255.6L-323.3,255.6z M-337.2,315.2c2.6,0,4.6,2.1,4.6,4.7c0,2.6-2.1,4.7-4.6,4.7
	c-2.6,0-4.6-2.1-4.6-4.7C-341.8,317.3-339.7,315.2-337.2,315.2z"/>
</svg>
