<?xml version="1.0" encoding="UTF-8" standalone="no"?><!-- Generator: Gravit.io --><svg xmlns="http://www.w3.org/2000/svg" xmlns:xlink="http://www.w3.org/1999/xlink" style="isolation:isolate" viewBox="0 0 1009.54 839.64" width="1009.54pt" height="839.64pt"><defs><clipPath id="_clipPath_QqmktD3Ys8IhfkR1r6KPkTARZMuqdsvO"><rect width="1009.54" height="839.64"/></clipPath></defs><g clip-path="url(#_clipPath_QqmktD3Ys8IhfkR1r6KPkTARZMuqdsvO)"><g opacity="0.1"><path d=" M 586.55 111.4 C 521.83 109.15 460.19 88.26 401.33 65.4 C 342.47 42.54 284.17 17.21 221 5.1 C 180.37 -2.69 133.9 -3.79 101.17 17.99 C 69.66 38.99 59.48 75.14 54.01 108.72 C 49.89 133.98 47.47 160.57 58.75 184.21 C 66.59 200.63 80.49 214.43 90.11 230.16 C 123.58 284.88 99.92 352.36 63.66 405.79 C 46.66 430.86 26.91 454.79 13.78 481.45 C 0.65 508.11 -5.42 538.7 6.07 565.92 C 17.45 592.92 44.58 613.16 73.97 627.41 C 133.66 656.36 203.97 664.64 272.58 669.33 C 424.41 679.72 577.04 675.22 729.27 670.72 C 785.61 669.05 842.19 667.36 897.61 658.65 C 928.39 653.81 960.16 646.14 982.51 627.6 C 1010.87 604.07 1017.9 564.23 998.89 534.72 C 967.01 485.23 878.89 472.94 856.58 419.83 C 844.32 390.59 856.91 358.03 874.74 330.91 C 912.98 272.75 977.07 221.72 980.44 155.24 C 982.76 109.58 951.95 63.85 904.31 42.24 C 854.38 19.6 785.13 22.44 748.31 59.93 C 710.36 98.53 643.7 113.38 586.55 111.4 Z " fill="rgb(105,48,195)"/></g><g opacity="0.1"><ellipse vector-effect="non-scaling-stroke" cx="483.49" cy="780.99" rx="303.97" ry="41.120000000000005" fill="rgb(105,48,195)"/></g><path d=" M 333.01 658.57 C 333.01 658.57 354.01 655.21 366.61 670.05 C 366.61 670.05 357.37 677.33 337.49 667.25 L 333.01 658.57 Z " fill="rgb(105,48,195)"/><path d=" M 330.77 658.24 C 330.77 658.24 317.37 674.82 323.94 693.09 C 323.94 693.09 334.86 688.72 336.05 666.46 L 330.77 658.24 Z " fill="rgb(105,48,195)"/><path d=" M 318.77 631.13 C 318.77 631.13 327.17 615.73 360.77 637.29 C 360.77 637.29 356.29 647.65 341.45 646.81 C 326.61 645.97 322.64 639.25 318.77 631.13 Z " fill="rgb(105,48,195)"/><path d=" M 316.56 630.02 C 316.56 630.02 299.13 628.02 297.44 667.92 C 297.44 667.92 308.49 670.22 316.34 657.59 C 324.19 644.96 320.94 637.9 316.56 630.02 Z " fill="rgb(105,48,195)"/><path d=" M 306.4 598.2 C 306.4 598.2 316.2 571.03 351.77 590.35 C 351.77 590.35 343.65 615.28 310.04 607.44 L 306.4 598.2 Z " fill="rgb(105,48,195)"/><path d=" M 295.48 557.59 C 295.48 557.59 313.96 530.15 346.73 555.59 C 346.73 555.59 335.25 581.35 298.28 567.35 L 295.48 557.59 Z " fill="rgb(105,48,195)"/><path d=" M 291.56 518.95 C 291.56 518.95 313.12 493.75 345.56 518.95 C 345.56 518.95 325.11 541.07 291.56 525.39 L 291.56 518.95 Z " fill="rgb(105,48,195)"/><path d=" M 288.2 481.43 C 288.2 481.43 310.04 455.1 341.13 480.03 C 341.13 480.03 316.48 503.27 288.2 487.59 L 288.2 481.43 Z " fill="rgb(105,48,195)"/><path d=" M 290.16 448.1 C 290.16 448.1 313.16 414.22 342.25 437.18 C 342.25 437.18 317.6 466.31 290.16 454.54 L 290.16 448.1 Z " fill="rgb(105,48,195)"/><path d=" M 295.48 409.18 C 295.48 409.18 319.84 375.58 348.13 401.34 C 348.13 401.34 319.28 430.46 295.48 415.34 L 295.48 409.18 Z " fill="rgb(105,48,195)"/><path d=" M 303.61 374.39 C 303.61 374.39 332.44 342.82 357.61 355.39 C 357.61 355.39 327.55 388.92 302.35 382.76 L 303.61 374.39 Z " fill="rgb(105,48,195)"/><path d=" M 313.68 341.42 C 313.68 341.42 347.01 302.77 366.33 315.65 C 366.33 315.65 341.81 345.65 311.33 348.7 L 313.68 341.42 Z " fill="rgb(105,48,195)"/><path d=" M 328.23 303.16 C 328.23 303.16 357.37 271.58 378.65 279.42 C 378.65 279.42 353.73 312.19 324.32 313.03 L 328.23 303.16 Z " fill="rgb(105,48,195)"/><path d=" M 341.41 267.38 C 341.41 267.38 373.61 237.14 387.61 242.46 C 387.61 242.46 364.37 276.06 340.01 274.1 L 341.41 267.38 Z " fill="rgb(105,48,195)"/><path d=" M 354.29 234.34 C 354.29 234.34 382.01 198.22 397.13 201.02 C 397.13 201.02 380.33 233.22 354.29 238.02 L 354.29 234.34 Z " fill="rgb(105,48,195)"/><path d=" M 368.26 189.82 C 368.26 189.82 392.77 162.12 406 162.19 C 406 162.19 386.66 199.19 367.26 198.85 L 368.26 189.82 Z " fill="rgb(105,48,195)"/><path d=" M 376.55 160.13 L 400.21 102.45 C 400.21 102.45 401.4 154.59 373.53 170.83 L 376.55 160.13 Z " fill="rgb(105,48,195)"/><path d=" M 386.15 96.52 C 386.15 96.52 390.07 48.36 387.55 44.44 C 387.55 44.44 404.48 84.44 385.99 117.8 L 386.15 96.52 Z " fill="rgb(105,48,195)"/><path d=" M 305.49 597.55 C 305.49 597.55 280.94 582.34 265.06 619.55 C 265.06 619.55 286.9 634.05 308.37 607.04 L 305.49 597.55 Z " fill="rgb(105,48,195)"/><path d=" M 294.7 556.04 C 294.7 556.04 264.6 542.31 249.99 581.16 C 249.99 581.16 273.25 597.16 297.44 565.86 L 294.7 556.04 Z " fill="rgb(105,48,195)"/><path d=" M 290.16 521.26 C 290.16 521.26 268.6 496.06 236.16 521.26 C 236.16 521.26 256.6 543.38 290.16 527.7 L 290.16 521.26 Z " fill="rgb(105,48,195)"/><path d=" M 287.47 481.43 C 287.47 481.43 265.62 455.1 234.54 480.03 C 234.54 480.03 259.18 503.27 287.47 487.59 L 287.47 481.43 Z " fill="rgb(105,48,195)"/><path d=" M 290.16 449.06 C 290.16 449.06 274.84 411.11 241.54 427.43 C 241.54 427.43 259.54 461.09 288.81 455.36 L 290.16 449.06 Z " fill="rgb(105,48,195)"/><path d=" M 297.41 408.99 C 297.41 408.99 282.19 370.38 248.41 388.28 C 248.41 388.28 269.09 423.67 295.91 414.96 L 297.41 408.99 Z " fill="rgb(105,48,195)"/><path d=" M 306.85 374.59 C 306.85 374.59 300.85 332.25 272.9 328.46 C 272.9 328.46 278.83 373.1 303.12 382.21 L 306.85 374.59 Z " fill="rgb(105,48,195)"/><path d=" M 314.4 341.49 C 314.4 341.49 312.05 290.49 288.9 288.72 C 288.9 288.72 289.68 327.42 311.79 348.72 L 314.4 341.49 Z " fill="rgb(105,48,195)"/><path d=" M 330.64 301.7 C 330.64 301.7 323.73 259.3 301.64 254.11 C 301.64 254.11 304.38 295.18 328.45 312.11 L 330.64 301.7 Z " fill="rgb(105,48,195)"/><path d=" M 344.03 267.69 C 344.03 267.69 343.79 223.51 330.29 217.02 C 330.29 217.02 321.92 257.02 340.12 273.33 L 344.03 267.69 Z " fill="rgb(105,48,195)"/><path d=" M 355.32 233.82 C 355.32 233.82 353.42 188.32 339.45 181.91 C 339.45 181.91 334.66 217.91 353.22 236.79 L 355.32 233.82 Z " fill="rgb(105,48,195)"/><path d=" M 370.22 193.42 C 370.22 193.42 370.13 156.42 360.15 147.74 C 360.15 147.74 350.23 188.28 365.01 200.86 L 370.22 193.42 Z " fill="rgb(105,48,195)"/><path d=" M 375.37 158.31 L 365.67 96.72 C 365.67 96.72 352.47 147.19 375.83 169.42 L 375.37 158.31 Z " fill="rgb(105,48,195)"/><path d=" M 377.27 97.1 C 377.27 97.1 352.34 55.71 352.86 51.1 C 352.86 51.1 355.5 94.5 386.86 116.1 L 377.27 97.1 Z " fill="rgb(105,48,195)"/><path d=" M 380.19 84.88 C 380.19 84.88 356.67 26.07 346.03 21.31 C 346.03 21.31 379.63 38.39 382.15 83.2 L 380.19 84.88 Z " fill="rgb(105,48,195)"/><path d=" M 367.13 199.17 L 365.52 198.68 C 385.37 133.95 390.33 92.68 379.47 82.34 L 380.63 81.12 C 392.13 92.03 387.47 132.82 367.13 199.17 Z " fill="rgb(68,64,83)"/><path d=" M 312.47 350.69 L 310.1 349.85 C 312.2 343.92 314.47 337.9 316.85 331.96 C 337.57 280.32 355.21 232.29 366.52 195.41 L 368.59 194.41 C 357.26 231.36 339.94 281.24 319.19 332.94 C 316.82 338.82 314.56 344.82 312.47 350.69 Z " fill="rgb(68,64,83)"/><path d=" M 362.56 707.02 C 362.24 706.66 330.06 670.44 307.64 608.58 C 294.493 572.376 287.169 534.317 285.94 495.82 C 284.4 447.69 294.5 393.95 311.8 345.14 L 313.68 347.34 C 274.85 456.9 290.28 550.79 310.74 607.34 C 332.94 668.63 364.74 704.47 365.06 704.82 L 362.56 707.02 Z " fill="rgb(68,64,83)"/><path d="M 645.09 289.82 L 649.37 289.82 C 650.634 289.82 651.66 290.846 651.66 292.11 L 651.66 360.55 C 651.66 361.814 650.634 362.84 649.37 362.84 L 645.09 362.84 C 643.826 362.84 642.8 361.814 642.8 360.55 L 642.8 292.11 C 642.8 290.846 643.826 289.82 645.09 289.82 Z" style="stroke:none;fill:#3A3768;stroke-miterlimit:10;"/><path d="M 350.66 232.61 L 351.05 232.61 C 352.314 232.61 353.34 233.636 353.34 234.9 L 353.34 254.36 C 353.34 255.624 352.314 256.65 351.05 256.65 L 350.66 256.65 C 349.396 256.65 348.37 255.624 348.37 254.36 L 348.37 234.9 C 348.37 233.636 349.396 232.61 350.66 232.61 Z" style="stroke:none;fill:#3A3768;stroke-miterlimit:10;"/><path d="M 350.48 276.63 L 351.5 276.63 C 352.764 276.63 353.79 277.656 353.79 278.92 L 353.79 316.18 C 353.79 317.444 352.764 318.47 351.5 318.47 L 350.48 318.47 C 349.216 318.47 348.19 317.444 348.19 316.18 L 348.19 278.92 C 348.19 277.656 349.216 276.63 350.48 276.63 Z" style="stroke:none;fill:#3A3768;stroke-miterlimit:10;"/><path d="M 350.57 333.11 L 351.32 333.11 C 352.584 333.11 353.61 334.136 353.61 335.4 L 353.61 373.02 C 353.61 374.284 352.584 375.31 351.32 375.31 L 350.57 375.31 C 349.306 375.31 348.28 374.284 348.28 373.02 L 348.28 335.4 C 348.28 334.136 349.306 333.11 350.57 333.11 Z" style="stroke:none;fill:#3A3768;stroke-miterlimit:10;"/><path d="M 390.17 153.17 L 608.59 153.17 C 630.109 153.17 647.58 170.641 647.58 192.16 L 647.58 716.57 C 647.58 738.089 630.109 755.56 608.59 755.56 L 390.17 755.56 C 368.651 755.56 351.18 738.089 351.18 716.57 L 351.18 192.16 C 351.18 170.641 368.651 153.17 390.17 153.17 Z" style="stroke:none;fill:#3A3768;stroke-miterlimit:10;"/><path d=" M 605.77 168.82 L 571.77 168.82 L 571.77 172.91 C 571.77 178.052 569.727 182.983 566.09 186.617 C 562.454 190.252 557.522 192.293 552.38 192.29 L 444.25 192.29 C 439.108 192.293 434.176 190.252 430.54 186.617 C 426.903 182.983 424.86 178.052 424.86 172.91 L 424.86 168.82 L 393.03 168.82 C 386.787 168.82 380.799 171.3 376.385 175.715 C 371.97 180.129 369.49 186.117 369.49 192.36 L 369.49 716.33 C 369.49 729.331 380.029 739.87 393.03 739.87 L 605.77 739.87 C 618.771 739.87 629.31 729.331 629.31 716.33 L 629.31 192.4 C 629.321 186.15 626.845 180.152 622.429 175.729 C 618.014 171.306 612.02 168.82 605.77 168.82 L 605.77 168.82 Z " fill="rgb(105,48,195)"/><path d="M 474.66 171.16 L 508.31 171.16 C 510.446 171.16 512.18 172.894 512.18 175.03 L 512.18 175.69 C 512.18 177.826 510.446 179.56 508.31 179.56 L 474.66 179.56 C 472.524 179.56 470.79 177.826 470.79 175.69 L 470.79 175.03 C 470.79 172.894 472.524 171.16 474.66 171.16 Z" style="stroke:none;fill:#E6E8EC;stroke-miterlimit:10;"/><circle vector-effect="non-scaling-stroke" cx="523.21" cy="175.36" r="4.769999999999982" fill="rgb(230,232,236)"/><path d=" M 750.2 126.75 C 750.2 126.75 666 121.67 675.92 180.67 C 675.92 180.67 673.92 191.1 683.4 195.83 C 683.4 195.83 683.55 191.46 692.04 192.95 C 695.063 193.451 698.133 193.599 701.19 193.39 C 705.314 193.119 709.237 191.515 712.37 188.82 L 712.37 188.82 C 712.37 188.82 736.04 179.04 745.24 140.36 C 745.24 140.36 752.05 131.92 751.78 129.75 L 737.57 135.82 C 737.57 135.82 742.43 146.07 738.57 154.59 C 738.57 154.59 738.11 136.19 735.38 136.59 C 734.83 136.67 728 140.14 728 140.14 C 728 140.14 736.35 157.99 730.05 170.97 C 730.05 170.97 732.44 148.97 725.39 141.43 L 715.39 147.27 C 715.39 147.27 725.15 165.71 718.53 180.76 C 718.53 180.76 720.23 157.68 713.28 148.69 L 704.22 155.76 C 704.22 155.76 713.39 173.93 707.8 186.41 C 707.8 186.41 707.07 159.55 702.26 157.52 C 702.26 157.52 694.33 164.52 693.12 167.38 C 693.12 167.38 699.4 180.58 695.5 187.54 C 695.5 187.54 693.11 169.64 691.15 169.54 C 691.15 169.54 683.25 181.4 682.43 189.54 C 682.43 189.54 682.77 177.45 689.24 168.42 C 689.24 168.42 681.6 169.73 677.14 174.68 C 677.14 174.68 678.37 166.3 691.19 165.56 C 691.19 165.56 697.72 156.56 699.46 156.02 C 699.46 156.02 686.72 154.95 678.99 158.38 C 678.99 158.38 685.79 150.47 701.8 154.07 L 710.75 146.76 C 710.75 146.76 693.97 144.47 686.85 147 C 686.85 147 695.04 140 713.16 145.1 L 722.9 139.28 C 722.9 139.28 708.59 136.2 700.07 137.28 C 700.07 137.28 709.07 132.43 725.76 137.69 L 732.76 134.56 C 732.76 134.56 722.28 132.5 719.21 132.17 C 719.21 132.17 715.98 131 715.98 131 C 722.62 129.893 729.436 130.651 735.67 133.19 C 735.67 133.19 750.45 127.68 750.2 126.75 Z " fill="rgb(52,176,52)"/><path d=" M 663.83 100.51 C 663.83 100.51 625.83 98.22 630.27 124.88 C 630.27 124.88 629.38 129.59 633.65 131.73 C 633.65 131.73 633.72 129.73 637.56 130.42 C 638.924 130.65 640.31 130.717 641.69 130.62 C 643.555 130.497 645.329 129.766 646.74 128.54 L 646.74 128.54 C 646.74 128.54 657.44 124.12 661.6 106.64 C 661.6 106.64 664.67 102.83 664.55 101.85 L 658.13 104.59 C 658.13 104.59 660.32 109.22 658.6 113.07 C 658.6 113.07 658.39 104.76 657.16 104.95 C 656.91 104.95 653.82 106.56 653.82 106.56 C 653.82 106.56 657.6 114.63 654.75 120.49 C 654.75 120.49 655.83 110.55 652.64 107.14 L 648.12 109.82 C 648.12 109.82 652.53 118.15 649.54 124.95 C 649.54 124.95 650.31 114.52 647.17 110.46 L 643.08 113.66 C 643.08 113.66 647.22 121.87 644.7 127.51 C 644.7 127.51 644.36 115.37 642.19 114.45 C 642.19 114.45 638.61 117.61 638.06 118.91 C 638.06 118.91 640.9 124.91 639.14 128.02 C 639.14 128.02 638.06 119.93 637.14 119.89 C 637.14 119.89 633.57 125.25 633.2 128.89 C 633.379 125.496 634.44 122.208 636.28 119.35 C 634.22 119.74 632.319 120.724 630.81 122.18 C 630.81 122.18 631.37 118.39 637.16 118.06 C 637.16 118.06 640.16 113.99 640.9 113.74 C 640.9 113.74 635.14 113.26 631.65 114.81 C 631.65 114.81 634.72 111.24 641.95 112.86 L 645.95 109.56 C 645.95 109.56 638.36 108.56 635.15 109.67 C 635.15 109.67 638.85 106.51 647.04 108.81 L 651.44 106.18 C 651.44 106.18 644.97 104.79 641.12 105.29 C 641.12 105.29 645.19 103.1 652.73 105.47 L 655.88 104.06 C 655.88 104.06 651.14 103.13 649.75 102.98 C 649.75 102.98 648.29 102.45 648.29 102.45 C 651.292 101.951 654.374 102.297 657.19 103.45 C 657.19 103.45 663.95 100.93 663.83 100.51 Z " fill="rgb(52,176,52)"/><g opacity="0.1"><rect x="395.91" y="226.18" width="206.95" height="439.24" transform="matrix(1,0,0,1,0,0)" fill="rgb(0,0,0)"/></g><linearGradient id="_lgradient_5" x1="-0.0002806471395704335" y1="0.49994692298782994" x2="1.0000995349966941" y2="0.49994692298782994" gradientTransform="matrix(206.871,0,0,399.705,395.968,410.949)" gradientUnits="userSpaceOnUse"><stop offset="0%" stop-opacity="0.25" style="stop-color:rgb(128,128,128)"/><stop offset="54%" stop-opacity="0.12" style="stop-color:rgb(128,128,128)"/><stop offset="100%" stop-opacity="0.1" style="stop-color:rgb(128,128,128)"/></linearGradient><path d=" M 596.52 788.04 C 596.52 788.04 591.64 776.68 589.46 771.44 C 588.23 768.44 586.15 767.94 584.56 768.01 L 584.65 767.01 L 585.04 762.28 L 585.12 761.28 C 588.89 760.49 592.12 759.87 592.12 759.87 L 589.77 638.55 C 589.77 638.55 588.77 637.27 586.35 629.55 C 585.15 625.7 579.35 620.97 573.93 617.2 C 573.08 616.61 572.25 616.05 571.43 615.51 C 573.404 613.857 575.477 612.327 577.64 610.93 C 580.72 609.14 581.74 598.93 581.74 598.93 L 581.23 599.93 C 581.74 598.93 581.23 572.86 581.23 572.86 L 579.43 545.8 C 579.43 545.8 578.15 513.63 568.15 505.2 C 558.15 496.77 545.52 493.82 545.52 493.82 L 538.52 492.02 L 538.52 492.02 L 525.62 488.71 C 525.26 488.12 524.91 487.5 524.62 486.85 C 524.49 486.6 524.37 486.34 524.25 486.08 C 532.247 480.418 537.001 471.229 537 461.43 C 537.002 459.809 536.872 458.19 536.61 456.59 C 536.61 456.29 536.5 455.98 536.44 455.68 C 537.5 454.954 538.503 454.149 539.44 453.27 C 540.968 452.053 542.216 450.522 543.1 448.78 L 543.1 448.78 C 543.239 448.439 543.352 448.088 543.44 447.73 C 543.44 447.63 543.44 447.53 543.5 447.42 C 543.56 447.31 543.59 446.89 543.62 446.62 C 543.62 446.52 543.62 446.42 543.62 446.32 C 543.62 446.03 543.62 445.73 543.62 445.44 C 543.62 445.37 543.62 445.3 543.62 445.22 C 543.62 444.89 543.57 444.56 543.52 444.22 C 543.525 444.2 543.525 444.18 543.52 444.16 L 543.52 444.16 C 543.337 442.999 543.035 441.86 542.62 440.76 C 541.62 438.18 540.32 435.76 539.85 433.01 C 539.27 429.76 539.94 426.21 538.39 423.29 C 537.087 421.055 534.854 419.518 532.3 419.1 C 529.762 418.709 527.165 419.006 524.78 419.96 C 523.614 420.514 522.357 420.853 521.07 420.96 C 520.134 420.906 519.216 420.682 518.36 420.3 C 515.391 419.135 512.571 417.621 509.96 415.79 C 508.081 414.307 506.073 412.996 503.96 411.87 C 501.811 410.748 499.273 410.646 497.04 411.59 C 493.34 413.47 492.64 418.71 489.2 421.02 C 486.83 422.62 483.74 422.46 480.88 422.56 C 478.02 422.66 474.78 423.37 473.37 425.85 C 472.37 427.57 472.61 429.62 472.8 431.63 L 472.86 432.31 C 472.86 432.55 472.86 432.8 472.92 433.04 C 473.078 435.611 472.693 438.187 471.79 440.6 C 470.41 444.26 467.79 447.87 467.88 451.6 L 467.88 451.6 C 467.888 452.194 467.965 452.784 468.11 453.36 C 468.188 453.648 468.282 453.932 468.39 454.21 L 468.39 454.21 C 468.941 455.446 469.558 456.651 470.24 457.82 L 470.33 457.98 C 470.4 458.12 470.47 458.26 470.53 458.4 C 470.59 458.54 470.71 458.78 470.78 458.97 C 470.85 459.16 470.86 459.16 470.89 459.25 C 470.92 459.34 471.02 459.62 471.07 459.81 C 471.235 460.375 471.306 460.962 471.28 461.55 C 471.163 462.308 471.099 463.073 471.09 463.84 C 471.097 464.631 471.655 465.31 472.43 465.47 C 472.843 465.46 473.244 465.335 473.59 465.11 C 474.487 464.599 475.34 464.013 476.14 463.36 C 476.14 463.68 476.14 464 476.2 464.36 C 476.896 471.517 480.119 478.193 485.29 483.19 C 485.29 483.5 485.29 483.82 485.22 484.19 C 485.15 484.56 485.17 484.91 485.15 485.28 L 485.15 485.28 L 473.95 488.8 C 473.95 488.8 474.01 489 474.13 489.34 L 472.95 489.81 L 472.95 489.81 C 467.14 492.16 460.67 495.08 457.05 497.73 C 455.45 498.89 453.99 499.84 452.68 500.63 C 447.924 503.541 444.277 507.958 442.32 513.18 L 442.17 513.56 C 441.17 515.85 436.27 531.43 436.27 531.43 C 436.27 531.43 432.68 540.11 432.16 545.73 C 432.16 545.73 426.26 564.36 427.8 576.62 C 427.8 576.62 423.18 594.24 424.98 597.04 C 424.98 597.04 423.14 604.62 431.22 612.25 C 430.63 612.61 429.99 613 429.32 613.43 C 423.06 617.37 414.03 623.76 412.49 628.69 C 410.1 636.36 409.07 637.69 409.07 637.69 L 406.65 758.82 C 406.65 758.82 409.88 759.44 413.65 760.22 L 413.73 761.22 L 414.12 765.94 L 414.21 766.94 C 412.62 766.87 410.54 767.42 409.31 770.38 C 407.12 775.61 402.31 786.96 402.31 786.96 C 402.31 786.96 391.54 796.96 398.07 806.24 C 398.358 806.664 398.693 807.053 399.07 807.4 C 403.76 811.66 413.76 808.93 420.87 806.15 C 424.483 804.608 427.598 802.095 429.87 798.89 C 430.449 798.131 431.319 797.649 432.27 797.56 C 433.901 797.297 435.438 796.626 436.74 795.61 C 438.331 794.448 439.251 792.579 439.2 790.61 C 439.195 790.56 439.195 790.51 439.2 790.46 L 438.57 776.23 C 438.57 776.23 437.8 766.29 435.35 766.93 L 434.72 767.08 L 434.55 766.08 L 434.55 766.08 L 434.22 764.15 L 434.05 763.15 L 435.41 763.15 C 435.41 763.15 435.75 751.91 439.86 743.07 C 443.97 734.23 446.67 662.82 446.67 662.82 C 446.67 662.82 497.54 663.65 499.24 658.88 L 499.24 658.88 C 500.24 658.88 501.33 658.88 502.37 658.81 C 504.08 663.58 552.09 663.81 552.09 663.81 C 552.09 663.81 554.82 735.3 558.92 744.15 C 559.785 746.046 560.504 748.005 561.07 750.01 L 561.07 750.01 C 562.361 754.647 563.135 759.413 563.38 764.22 L 564.74 764.22 L 564.56 765.22 L 564.23 767.14 L 564.06 768.14 L 563.41 767.99 C 560.98 767.36 560.21 777.3 560.21 777.3 L 559.56 791.62 C 559.457 793.582 560.352 795.463 561.94 796.62 C 563.264 797.659 564.829 798.347 566.49 798.62 C 567.442 798.697 568.316 799.177 568.89 799.94 C 571.164 803.143 574.278 805.655 577.89 807.2 C 585.57 810.2 596.61 813.13 600.71 807.3 C 607.29 798 596.52 788.04 596.52 788.04 Z  M 467.22 609.7 L 467.22 609.7 L 467.34 609.7 L 467.22 609.7 Z  M 547.57 568.82 C 547.57 568.82 548.86 573.67 551.16 576.22 C 551.16 576.22 552.32 594.61 552.32 594.61 C 551.415 594.667 550.518 594.811 549.64 595.04 C 547.87 584.51 546.24 572.82 547.57 568.82 Z " fill="url(#_lgradient_5)"/><path d=" M 436.96 768.43 L 416.85 770.43 L 416.29 763.7 L 415.9 759.07 L 415.35 752.3 L 434.35 753.3 L 435.86 761.99 L 436.18 763.88 L 436.19 763.88 L 436.96 768.43 L 436.96 768.43 Z " fill="rgb(142,111,127)"/><path d=" M 583.41 753.31 L 582.86 760.07 L 582.48 764.7 L 581.91 771.43 L 561.79 769.43 L 562.59 764.88 L 562.9 763 L 564.41 754.31 L 583.41 753.31 L 583.41 753.31 Z " fill="rgb(142,111,127)"/><path d=" M 562.1 655.92 L 502.3 658.73 Q 498.22 658.93 494.14 658.73 L 437.01 655.93 L 437.01 610.67 L 562.1 610.67 L 562.1 655.92 Z " fill="rgb(95,85,112)"/><g opacity="0.1"><path d=" M 562.1 655.92 L 502.3 658.73 Q 498.22 658.93 494.14 658.73 L 437.01 655.93 L 437.01 610.67 L 562.1 610.67 L 562.1 655.92 Z " fill="rgb(0,0,0)"/></g><path d=" M 485.52 488.73 C 485.52 488.73 465.6 495.42 458.1 500.92 C 456.54 502.06 455.1 503 453.84 503.77 C 449.208 506.626 445.663 510.948 443.77 516.05 C 443.72 516.19 443.67 516.31 443.62 516.42 C 442.62 518.67 437.87 533.92 437.87 533.92 C 437.87 533.92 434.37 542.42 433.87 547.92 C 433.37 553.42 462.37 568.17 462.37 568.17 C 462.37 568.17 448.37 598.67 454.62 606.42 C 460.87 614.17 552.12 617.92 550.12 606.42 C 548.12 594.92 544.62 575.92 546.37 570.67 L 577.37 548.17 C 577.37 548.17 576.12 516.67 566.37 508.42 C 566.37 508.42 544.37 497.17 544.37 497.17 L 524.96 492.17 C 524.96 492.17 518.12 509.17 510.62 511.42 C 503.12 513.67 486.69 503.28 485.52 488.73 Z " fill="rgb(234,234,242)"/><g opacity="0.1"><path d=" M 513.5 517.36 C 513.5 517.36 505.04 524.42 500.6 517.36 C 500.6 517.36 496.6 529.3 500.6 533.3 L 500.45 534.11 L 499.74 537.67 L 490.48 614.67 L 498.1 627.82 L 511.97 610.42 L 510.85 538.42 L 510.35 534.29 L 510.23 533.29 L 512.6 533.29 C 512.6 533.29 518.89 522.42 513.5 517.36 Z " fill="rgb(0,0,0)"/></g><g opacity="0.1"><path d=" M 515.5 517.36 C 515.5 517.36 507.04 524.42 502.6 517.36 C 502.6 517.36 498.6 529.3 502.6 533.3 L 502.45 534.11 L 501.74 537.67 L 492.48 614.67 L 500.1 627.82 L 513.97 610.42 L 512.85 538.42 L 512.35 534.29 L 512.23 533.29 L 514.6 533.29 C 514.6 533.29 520.89 522.42 515.5 517.36 Z " fill="rgb(0,0,0)"/></g><path d=" M 512.97 609.43 L 499.1 626.8 L 491.46 613.72 L 500.73 536.68 L 501.44 533.12 L 501.6 532.3 L 502.85 529.06 L 511.23 532.3 L 511.35 533.3 L 511.85 537.43 L 512.97 609.43 L 512.97 609.43 Z " fill="rgb(188,132,135)"/><g opacity="0.1"><path d=" M 435.86 761.98 C 431.545 761.952 427.242 761.514 423.01 760.67 C 420.92 760.15 418.3 759.57 415.91 759.06 L 415.35 752.29 L 434.35 753.29 L 435.86 761.98 Z " fill="rgb(0,0,0)"/></g><path d=" M 499.25 658.82 C 497.59 663.49 448.01 662.67 448.01 662.67 C 448.01 662.67 445.35 732.67 441.35 741.34 C 437.35 750.01 437.01 761 437.01 761 C 437.01 761 428.35 761 423.01 759.67 C 417.67 758.34 409.01 756.67 409.01 756.67 L 411.35 637.92 C 411.35 637.92 412.35 636.67 414.68 629.16 C 416.18 624.33 424.98 618.07 431.07 614.16 C 434.47 612.02 437.01 610.62 437.01 610.62 L 466.59 611.82 L 484.85 612.56 C 484.85 612.56 500.92 654.15 499.25 658.82 Z " fill="rgb(95,85,112)"/><g opacity="0.1"><path d=" M 436.97 768.42 L 416.85 770.42 L 416.28 763.69 C 417.034 763.711 417.777 763.874 418.47 764.17 C 422.14 766.81 432.63 764.71 436.18 763.87 L 436.18 763.87 L 436.97 768.42 Z " fill="rgb(0,0,0)"/></g><path d=" M 440.77 787.87 C 440.818 789.797 439.917 791.625 438.36 792.76 C 437.094 793.753 435.598 794.41 434.01 794.67 C 433.083 794.75 432.235 795.223 431.68 795.97 C 429.457 799.105 426.412 801.565 422.88 803.08 C 415.95 805.8 406.2 808.47 401.63 804.3 C 401.253 803.965 400.917 803.585 400.63 803.17 C 394.26 794.05 404.76 784.29 404.76 784.29 C 404.76 784.29 409.5 773.17 411.63 768.05 C 412.095 766.707 413.11 765.625 414.422 765.075 C 415.733 764.526 417.216 764.56 418.5 765.17 C 422.5 768.05 434.63 765.29 437 764.68 C 439.37 764.07 440.13 773.79 440.13 773.79 L 440.77 787.72 C 440.765 787.77 440.765 787.82 440.77 787.87 L 440.77 787.87 Z " fill="rgb(188,132,135)"/><g opacity="0.1"><path d=" M 583.42 753.3 L 582.86 760.06 C 580.47 760.57 577.86 761.15 575.75 761.67 C 571.521 762.515 567.222 762.957 562.91 762.99 L 564.42 754.3 L 583.42 753.3 Z " fill="rgb(0,0,0)"/></g><path d=" M 589.77 757.67 C 589.77 757.67 581.11 759.34 575.77 760.67 C 575.77 760.67 561.77 762 561.77 762 C 561.77 762 561.44 751 557.44 742.34 C 553.44 733.68 550.77 663.67 550.77 663.67 C 550.77 663.67 503.99 663.4 502.32 658.73 C 500.65 654.06 522.71 613.73 522.71 613.73 L 536.16 613.03 L 561.77 611.67 C 561.77 611.67 566.77 614.39 572.01 618.06 C 572.01 618.06 582.94 626.39 584.11 630.16 C 586.44 637.67 587.44 638.92 587.44 638.92 L 589.77 757.67 Z " fill="rgb(95,85,112)"/><g opacity="0.1"><path d=" M 582.48 764.69 L 581.92 771.42 L 561.79 769.42 L 562.59 764.87 C 566.14 765.72 576.59 767.81 580.29 765.17 C 580.983 764.874 581.726 764.711 582.48 764.69 Z " fill="rgb(0,0,0)"/></g><path d=" M 580.29 766.17 C 581.575 765.557 583.061 765.52 584.375 766.07 C 585.688 766.62 586.705 767.704 587.17 769.05 C 589.29 774.17 594.04 785.3 594.04 785.3 C 594.04 785.3 604.54 795.05 598.17 804.17 C 594.17 809.89 583.41 807.02 575.93 804.08 C 572.394 802.571 569.348 800.11 567.13 796.97 C 566.572 796.222 565.72 795.748 564.79 795.67 C 563.165 795.387 561.638 794.699 560.35 793.67 C 558.812 792.532 557.946 790.701 558.04 788.79 L 558.67 774.79 C 558.67 774.79 559.42 765.06 561.79 765.67 C 564.16 766.28 576.29 769.05 580.29 766.17 Z " fill="rgb(188,132,135)"/><path d=" M 528.6 497.17 L 508.41 518.57 L 507.85 519.17 L 507.12 518.74 C 502.9 516.24 481.79 503.5 483.6 499.67 C 484.6 497.49 485.19 492.95 485.5 489.04 C 485.5 488.57 485.56 488.11 485.6 487.66 C 485.8 484.57 485.85 482.17 485.85 482.17 C 485.85 482.17 523.85 475.67 522.35 482.17 C 521.74 484.8 522.65 487.76 523.94 490.35 C 524.32 491.1 524.74 491.81 525.15 492.48 C 526.16 494.142 527.314 495.711 528.6 497.17 Z " fill="rgb(255,196,208)"/><g opacity="0.1"><path d=" M 523.94 490.35 C 512.23 498.979 495.99 497.84 485.6 487.66 C 485.8 484.57 485.85 482.17 485.85 482.17 C 485.85 482.17 523.85 475.67 522.35 482.17 C 521.77 484.82 522.65 487.76 523.94 490.35 Z " fill="rgb(0,0,0)"/></g><path d=" M 536.01 465.46 C 536.238 481.46 523.737 494.759 507.754 495.519 C 491.77 496.28 478.063 484.229 476.77 468.28 Q 476.65 466.88 476.65 465.46 C 476.453 454.732 482.064 444.733 491.323 439.312 C 500.582 433.89 512.048 433.89 521.307 439.312 C 530.566 444.733 536.177 454.732 535.98 465.46 L 536.01 465.46 Z " fill="rgb(255,196,208)"/><g opacity="0.1"><path d=" M 535.64 460.72 C 534.078 461.992 532.05 462.541 530.06 462.23 C 525.48 461.23 523.91 454.23 519.23 453.75 C 514.55 453.27 511.44 459.75 506.7 459.62 C 504.7 459.57 502.9 458.26 501.06 457.35 C 497.84 455.76 492.54 454.79 489.06 455.99 C 483.83 457.78 482.06 462.62 478.72 466.47 C 478.149 467.126 477.524 467.731 476.85 468.28 Q 476.73 466.88 476.73 465.46 C 476.589 449.892 488.504 436.863 504.023 435.616 C 519.541 434.369 533.384 445.329 535.73 460.72 L 535.64 460.72 Z " fill="rgb(0,0,0)"/></g><path d=" M 501.06 456.36 C 502.9 457.26 504.66 458.58 506.7 458.63 C 511.43 458.75 514.52 452.24 519.22 452.75 C 523.92 453.26 525.47 460.2 530.07 461.23 C 533.16 461.93 536.07 459.62 538.38 457.47 C 539.873 456.281 541.091 454.784 541.95 453.08 C 542.95 450.6 542.43 447.74 541.5 445.22 C 540.57 442.7 539.26 440.28 538.8 437.63 C 538.24 434.45 538.89 430.97 537.38 428.11 C 536.115 425.922 533.935 424.417 531.44 424.01 C 528.966 423.626 526.435 423.913 524.11 424.84 C 522.977 425.39 521.754 425.729 520.5 425.84 C 519.585 425.784 518.687 425.564 517.85 425.19 C 514.958 424.05 512.212 422.57 509.67 420.78 C 507.847 419.325 505.896 418.04 503.84 416.94 C 501.748 415.842 499.273 415.742 497.1 416.67 C 493.5 418.51 492.81 423.67 489.46 425.9 C 487.15 427.46 484.14 427.3 481.36 427.41 C 478.58 427.52 475.36 428.19 474.04 430.62 C 472.86 432.71 473.45 435.28 473.6 437.67 C 473.749 440.187 473.371 442.708 472.49 445.07 C 470.94 449.21 467.79 453.29 468.91 457.57 C 469.64 460.38 472.16 462.71 472.01 465.57 C 471.892 466.308 471.829 467.053 471.82 467.8 C 471.827 468.575 472.372 469.24 473.13 469.4 C 473.531 469.395 473.921 469.27 474.25 469.04 C 475.913 468.11 477.404 466.903 478.66 465.47 C 482.04 461.61 483.79 456.78 489.02 454.99 C 492.55 453.82 497.84 454.76 501.06 456.36 Z " fill="rgb(142,111,127)"/><path d=" M 535.47 630.92 L 530.07 632.39 L 517.6 635.82 C 514.714 637.97 511.466 639.586 508.01 640.59 C 500.38 642.52 495.45 638.32 491.35 631.82 C 489.7 629.22 490.53 627.14 492.69 625.51 C 497.89 621.58 510.75 620.3 514.69 620.82 C 517.278 621.031 519.878 620.626 522.28 619.64 C 523.985 619.02 525.628 618.243 527.19 617.32 L 535.47 630.92 Z " fill="rgb(255,196,208)"/><g opacity="0.1"><path d=" M 535.47 630.92 L 530.07 632.39 C 528.52 627.72 525.97 621.86 522.32 619.61 C 524.025 618.99 525.668 618.213 527.23 617.29 L 535.47 630.92 Z " fill="rgb(0,0,0)"/></g><g opacity="0.1"><path d=" M 571.99 618.06 C 569.75 619.87 567.85 621.52 567.85 621.52 C 567.85 621.52 541.85 629.67 536.85 639.92 C 536.85 639.92 532.85 619.92 524.35 619.67 C 524.35 619.67 533.5 616.08 536.14 613.01 L 561.77 611.67 C 561.77 611.67 566.77 614.39 571.99 618.06 Z " fill="rgb(0,0,0)"/></g><path d=" M 571.6 539.67 L 577.35 548.17 L 579.1 574.67 C 579.1 574.67 579.6 600.17 579.1 601.17 L 579.6 600.17 C 579.6 600.17 578.6 610.17 575.6 611.92 C 575.6 611.92 565.85 619.52 565.85 619.52 C 565.85 619.52 539.85 627.67 534.85 637.92 C 534.85 637.92 530.85 617.92 522.35 617.67 C 522.35 617.67 535.1 612.67 534.85 609.42 C 534.85 609.42 544.6 600.67 545.35 598.42 C 546.1 596.17 550.97 595.92 550.97 595.92 C 550.97 595.92 552.1 580.42 549.85 577.92 C 547.6 575.42 546.35 570.67 546.35 570.67 L 571.6 539.67 Z " fill="rgb(234,234,242)"/><g opacity="0.1"><path d=" M 508.01 640.56 C 500.38 642.49 495.45 638.29 491.35 631.79 C 489.7 629.19 490.53 627.11 492.69 625.48 L 493.47 625.79 C 493.47 625.79 507.22 631.75 508.01 640.56 Z " fill="rgb(0,0,0)"/></g><path d=" M 504.85 648.55 C 495.85 661.05 479.1 643.67 477.85 640.17 C 477.4 638.9 475.69 637.77 473.72 636.86 C 471.221 635.768 468.627 634.908 465.97 634.29 L 480.85 622.17 L 483.7 623.31 L 492.47 626.82 C 492.47 626.82 513.85 636.05 504.85 648.55 Z " fill="rgb(255,196,208)"/><g opacity="0.1"><path d=" M 483.7 623.31 C 475.5 627.21 473.75 632.82 473.7 636.86 C 471.201 635.768 468.607 634.908 465.95 634.29 L 480.83 622.17 L 483.7 623.31 Z " fill="rgb(0,0,0)"/></g><g opacity="0.1"><path d=" M 470.6 644.92 C 470.6 644.92 446.6 625.92 435.1 617.67 C 433.661 616.645 432.322 615.486 431.1 614.21 C 434.5 612.07 437.04 610.67 437.04 610.67 L 466.62 611.87 C 467.41 613.24 467.88 614.17 467.88 614.17 L 483.88 624.67 C 464.6 630.92 470.6 644.92 470.6 644.92 Z " fill="rgb(0,0,0)"/></g><path d=" M 438.6 545.17 L 433.85 547.92 C 433.85 547.92 428.1 566.17 429.6 578.17 C 429.6 578.17 425.1 595.42 426.85 598.17 C 426.85 598.17 424.6 607.42 436.1 615.67 C 447.6 623.92 471.6 642.92 471.6 642.92 C 471.6 642.92 465.6 628.92 484.85 622.67 L 468.85 612.17 C 468.85 612.17 463.48 601.51 458.35 599.17 C 458.35 599.17 454.35 595.17 456.85 592.42 C 459.35 589.67 461.35 586.67 461.35 583.92 C 461.35 581.17 462.35 568.17 462.35 568.17 L 465.35 554.17 L 438.6 545.17 Z " fill="rgb(234,234,242)"/><g opacity="0.1"><path d=" M 511.35 533.29 L 501.6 533.29 C 501.541 533.235 501.488 533.175 501.44 533.11 L 501.6 532.29 L 502.85 529.05 L 511.23 532.29 L 511.35 533.29 Z " fill="rgb(0,0,0)"/></g><path d=" M 514.5 516.36 C 514.5 516.36 506.04 523.42 501.6 516.36 C 501.6 516.36 497.6 528.3 501.6 532.3 L 513.6 532.3 C 513.6 532.3 519.89 521.42 514.5 516.36 Z " fill="rgb(188,132,135)"/><g opacity="0.1"><path d=" M 525.94 493.17 L 538.54 496.42 C 538.54 496.42 526.6 527.42 523.97 527.42 L 508.85 520.17 L 525.94 493.17 Z " fill="rgb(0,0,0)"/></g><g opacity="0.1"><path d=" M 528.6 497.17 L 508.41 518.57 L 507.85 519.17 L 507.12 518.74 L 524.77 491.82 L 525.2 492.53 C 526.196 494.173 527.334 495.725 528.6 497.17 Z " fill="rgb(0,0,0)"/></g><path d=" M 524.94 492.17 L 537.54 495.42 C 537.54 495.42 525.6 526.42 522.97 526.42 L 507.85 519.17 L 524.94 492.17 Z " fill="rgb(234,234,242)"/><g opacity="0.1"><path d=" M 484.52 489.73 L 473.6 493.17 C 473.6 493.17 484.35 525.67 487.35 527.42 L 506.85 520.17 L 484.52 489.73 Z " fill="rgb(0,0,0)"/></g><g opacity="0.1"><path d=" M 508.41 518.57 L 507.85 519.17 C 507.85 519.17 481.6 503.92 483.6 499.67 C 484.6 497.49 485.19 492.95 485.5 489.04 L 485.5 488.43 L 508.41 518.57 Z " fill="rgb(0,0,0)"/></g><path d=" M 485.52 488.73 L 474.6 492.17 C 474.6 492.17 485.35 524.67 488.35 526.42 L 507.85 519.17 L 485.52 488.73 Z " fill="rgb(234,234,242)"/><g opacity="0.1"><path d=" M 459.51 541.82 C 459.51 541.82 466.09 542.99 465.97 549.82 C 465.97 549.82 468.68 540.99 468.68 540.99 L 459.51 541.82 Z " fill="rgb(0,0,0)"/></g><g opacity="0.1"><path d=" M 461.01 562.82 C 461.01 562.82 459.18 573.15 461.01 582.49 C 461.01 582.49 462.68 594.99 464.1 595.49 C 465.52 595.99 461.01 562.82 461.01 562.82 Z " fill="rgb(0,0,0)"/></g><g opacity="0.1"><path d=" M 545.01 561.82 C 543.947 561.955 542.999 562.553 542.42 563.455 C 541.841 564.356 541.691 565.467 542.01 566.49 C 542.85 570.67 545.01 561.82 545.01 561.82 Z " fill="rgb(0,0,0)"/></g><g opacity="0.1"><path d=" M 430.68 596.82 C 430.68 596.82 452.11 594.99 455.68 598.82 C 459.25 602.65 430.68 596.82 430.68 596.82 Z " fill="rgb(0,0,0)"/></g><g opacity="0.1"><path d=" M 555.01 598.27 C 555.01 598.27 570.68 596.34 574.35 599.01" fill="rgb(0,0,0)"/></g><g opacity="0.1"><path d=" M 561.35 600.82 C 561.35 600.82 570.68 601.15 572.85 602.32" fill="rgb(0,0,0)"/></g><g opacity="0.1"><path d=" M 563.18 604.17 C 563.18 604.17 571.68 603.84 572.85 605.17" fill="rgb(0,0,0)"/></g><g opacity="0.1"><path d=" M 443.31 651.17 C 443.31 651.17 450.59 654.96 449.85 658.83 C 449.11 662.7 443.31 651.17 443.31 651.17 Z " fill="rgb(0,0,0)"/></g><g opacity="0.1"><path d=" M 437.01 653.01 C 437.01 653.01 448.12 667.42 446.61 672.17 C 445.1 676.92 437.01 653.01 437.01 653.01 Z " fill="rgb(0,0,0)"/></g><g opacity="0.1"><path d=" M 556.1 655.4 C 556.1 655.4 550.6 659.93 550.75 663.67" fill="rgb(0,0,0)"/></g><g opacity="0.1"><path d=" M 429.1 744.67 C 429.1 744.67 429.1 748.92 436.97 755.17" fill="rgb(0,0,0)"/></g><g opacity="0.1"><path d=" M 568.01 734.67 C 568.01 734.67 567.17 743.51 559.51 748.09" fill="rgb(0,0,0)"/></g><g style="opacity:0.1;"><g opacity="0.1"><path d=" M 473.6 434.63 C 473.6 433.94 473.48 433.23 473.42 432.53 C 473.293 434.057 473.34 435.594 473.56 437.11 C 473.628 436.285 473.642 435.457 473.6 434.63 Z " fill="rgb(0,0,0)"/></g><g opacity="0.1"><path d=" M 472.01 462.57 C 472.16 459.67 469.64 457.34 468.91 454.57 C 468.873 454.436 468.846 454.299 468.83 454.16 C 468.602 455.288 468.629 456.454 468.91 457.57 C 469.5 459.86 471.28 461.82 471.84 464.04 C 471.89 463.52 471.99 463.05 472.01 462.57 Z " fill="rgb(0,0,0)"/></g><g opacity="0.1"><path d=" M 541.95 450.08 C 541.088 451.782 539.87 453.279 538.38 454.47 C 536.05 456.62 533.16 458.93 530.07 458.23 C 525.48 457.23 523.9 450.23 519.22 449.75 C 514.54 449.27 511.43 455.75 506.7 455.62 C 504.7 455.57 502.9 454.26 501.06 453.35 C 497.84 451.76 492.55 450.79 489.06 451.99 C 483.83 453.78 482.06 458.62 478.7 462.47 C 477.446 463.903 475.958 465.114 474.3 466.05 C 473.964 466.272 473.572 466.393 473.17 466.4 C 472.659 466.331 472.227 465.985 472.05 465.5 L 472.05 465.57 C 471.932 466.311 471.869 467.06 471.86 467.81 C 471.872 468.581 472.415 469.241 473.17 469.4 C 473.572 469.393 473.964 469.272 474.3 469.05 C 475.958 468.114 477.446 466.903 478.7 465.47 C 482.08 461.62 483.83 456.78 489.06 454.99 C 492.59 453.79 497.88 454.76 501.06 456.35 C 502.9 457.26 504.66 458.57 506.7 458.62 C 511.43 458.74 514.52 452.23 519.22 452.75 C 523.92 453.27 525.48 460.19 530.07 461.23 C 533.16 461.93 536.07 459.62 538.38 457.47 C 539.87 456.279 541.088 454.782 541.95 453.08 C 542.507 451.635 542.656 450.064 542.38 448.54 C 542.295 449.068 542.151 449.585 541.95 450.08 L 541.95 450.08 Z " fill="rgb(0,0,0)"/></g></g><g opacity="0.1"><path d=" M 404.77 784.3 C 404.77 784.3 412.94 781.78 416.33 786.56" fill="rgb(0,0,0)"/></g><g opacity="0.1"><path d=" M 594.04 785.3 C 594.04 785.3 580.51 784.51 581.04 788.17" fill="rgb(0,0,0)"/></g><g opacity="0.1"><ellipse vector-effect="non-scaling-stroke" cx="864.17" cy="773.34" rx="26.92999999999995" ry="4.5499999999999545" fill="rgb(105,48,195)"/></g><g opacity="0.1"><ellipse vector-effect="non-scaling-stroke" cx="91.09" cy="810.68" rx="26.930000000000007" ry="4.5499999999999545" fill="rgb(105,48,195)"/></g><g opacity="0.1"><ellipse vector-effect="non-scaling-stroke" cx="195.26" cy="835.09" rx="26.930000000000007" ry="4.5499999999999545" fill="rgb(105,48,195)"/></g><ellipse vector-effect="non-scaling-stroke" cx="805.22" cy="822.1" rx="40.210000000000036" ry="6.7999999999999545" fill="rgb(130,128,126)"/><path d=" M 821.85 810.98 C 823.683 809.481 825.018 807.463 825.68 805.19 C 826.18 802.9 825.2 800.19 823 799.3 C 820.54 798.36 817.91 800.07 815.92 801.79 C 813.93 803.51 811.64 805.48 809.03 805.11 C 811.762 802.639 812.996 798.914 812.28 795.3 C 812.163 794.563 811.848 793.872 811.37 793.3 C 810.01 791.84 807.53 792.46 805.9 793.62 C 800.7 797.27 799.25 804.34 799.22 810.69 C 798.69 808.4 799.14 806.01 799.12 803.69 C 799.1 801.37 798.47 798.69 796.48 797.46 C 795.252 796.801 793.873 796.477 792.48 796.52 C 790.14 796.43 787.54 796.67 785.94 798.38 C 783.94 800.5 784.48 804.06 786.2 806.38 C 787.92 808.7 790.55 810.19 792.97 811.8 C 794.906 812.954 796.557 814.53 797.8 816.41 C 797.95 816.673 798.071 816.951 798.16 817.24 L 812.77 817.24 C 816.064 815.571 819.119 813.466 821.85 810.98 L 821.85 810.98 Z " fill="rgb(59,183,59)"/><path d=" M 196.65 723.27 C 196.65 723.27 202.15 730.46 194.12 741.27 C 194.12 741.27 179.47 761.27 182.12 768.04 C 182.12 768.04 194.24 747.89 204.12 747.61 C 214 747.33 207.5 735.39 196.65 723.27 Z " fill="rgb(0,255,0)"/><g opacity="0.1"><path d=" M 196.65 723.27 C 197.13 723.966 197.507 724.727 197.77 725.53 C 207.39 736.83 212.52 747.38 203.27 747.64 C 194.66 747.89 184.33 763.29 181.85 767.18 C 181.93 767.48 182.03 767.77 182.14 768.07 C 182.14 768.07 194.26 747.92 204.14 747.64 C 214.02 747.36 207.5 735.39 196.65 723.27 Z " fill="rgb(0,0,0)"/></g><path d=" M 206.86 732.43 C 206.86 734.96 206.58 737.01 206.23 737.01 C 205.88 737.01 205.6 734.96 205.6 732.43 C 205.6 729.9 205.95 731.09 206.3 731.09 C 206.65 731.09 206.86 729.9 206.86 732.43 Z " fill="rgb(255,208,55)"/><path d=" M 210.37 735.45 C 208.15 736.66 206.21 737.39 206.05 737.08 C 205.89 736.77 207.54 735.54 209.76 734.33 C 211.98 733.12 211.11 734 211.27 734.33 C 211.43 734.66 212.59 734.24 210.37 735.45 Z " fill="rgb(255,208,55)"/><path d=" M 167.64 723.27 C 167.64 723.27 162.14 730.46 170.17 741.27 C 170.17 741.27 184.82 761.27 182.17 768.04 C 182.17 768.04 170.06 747.89 160.17 747.61 C 150.28 747.33 156.77 735.39 167.64 723.27 Z " fill="rgb(82,191,82)"/><g opacity="0.1"><path d=" M 167.64 723.27 C 167.159 723.966 166.779 724.727 166.51 725.53 C 156.89 736.83 151.77 747.38 161.01 747.64 C 169.63 747.89 179.96 763.29 182.44 767.18 C 182.358 767.482 182.258 767.78 182.14 768.07 C 182.14 768.07 170.03 747.92 160.14 747.64 C 150.25 747.36 156.77 735.39 167.64 723.27 Z " fill="rgb(0,255,0)"/></g><path d=" M 157.42 732.43 C 157.42 734.96 157.71 737.01 158.06 737.01 C 158.41 737.01 158.69 734.96 158.69 732.43 C 158.69 729.9 158.34 731.09 157.99 731.09 C 157.64 731.09 157.42 729.9 157.42 732.43 Z " fill="rgb(255,208,55)"/><path d=" M 153.92 735.45 C 156.14 736.66 158.07 737.39 158.24 737.08 C 158.41 736.77 156.74 735.54 154.52 734.33 C 152.3 733.12 153.18 734 153.01 734.33 C 152.84 734.66 151.7 734.24 153.92 735.45 Z " fill="rgb(255,208,55)"/><path d=" M 159.17 767.13 C 159.17 767.13 174.53 766.65 179.17 763.36 C 179.17 763.36 202.8 756.12 203.94 761.41 C 203.94 761.41 227.03 787.7 209.69 787.84 C 209.69 787.84 169.39 785.14 164.77 782.33 C 160.15 779.52 159.17 767.13 159.17 767.13 Z " fill="rgb(168,168,168)"/><g opacity="0.2"><path d=" M 209.99 786 C 192.65 786.14 169.69 783.3 165.07 780.49 C 161.56 778.34 160.15 770.65 159.68 767.11 L 159.17 767.11 C 159.17 767.11 160.17 779.49 164.76 782.31 C 164.76 782.31 192.34 787.96 209.68 787.82 C 214.68 787.82 216.41 786 216.32 783.36 C 215.62 784.98 213.71 785.97 209.99 786 Z " fill="rgb(0,0,0)"/></g></g></svg>